<?xml version="1.0" encoding="UTF-8"?>
<svg width="25px" height="24px" viewBox="0 0 25 24" version="1.1" xmlns="http://www.w3.org/2000/svg" xmlns:xlink="http://www.w3.org/1999/xlink">
    <!-- Generator: sketchtool 46.2 (44496) - http://www.bohemiancoding.com/sketch -->
    <title>DCAE9688-C8ED-44F7-A813-0138C3D219F6</title>
    <desc>Created with sketchtool.</desc>
    <defs></defs>
    <g id="Page-1" stroke="none" stroke-width="1" fill="none" fill-rule="evenodd">
        <g id="实例监控-新建／修改-操作提示" transform="translate(-222.000000, -206.000000)" fill="#FFAA00">
            <g id="Group-4" transform="translate(183.000000, 165.000000)">
                <g id="Group-3" transform="translate(39.904077, 41.000000)">
                    <path d="M11.971223,24 C5.35899281,24 0,18.628125 0,12 C0,5.371875 5.35899281,0 11.971223,0 C18.5834532,0 23.942446,5.371875 23.942446,12 C23.942446,18.628125 18.5834532,24 11.971223,24 L11.971223,24 Z M12.7194245,5.25 C12.7194245,4.83515625 12.3850719,4.5 11.971223,4.5 L11.971223,4.5 C11.5573741,4.5 11.2230216,4.83515625 11.2230216,5.25 L11.2230216,5.25 C11.2230216,5.66484375 11.5573741,6 11.971223,6 L11.971223,6 C12.3850719,6 12.7194245,5.66484375 12.7194245,5.25 L12.7194245,5.25 L12.7194245,5.25 Z M12.7194245,8.25 C12.7194245,7.83515625 12.3850719,7.5 11.971223,7.5 L11.971223,7.5 C11.5573741,7.5 11.2230216,7.83515625 11.2230216,8.25 L11.2230216,18.75 C11.2230216,19.1648438 11.5573741,19.5 11.971223,19.5 L11.971223,19.5 C12.3850719,19.5 12.7194245,19.1648438 12.7194245,18.75 L12.7194245,8.25 L12.7194245,8.25 Z" id="alarm" transform="translate(11.971223, 12.000000) scale(1, -1) translate(-11.971223, -12.000000) "></path>
                </g>
            </g>
        </g>
    </g>
</svg>